<svg id="visual" viewBox="0 0 900 600" width="900" height="600" xmlns="http://www.w3.org/2000/svg" xmlns:xlink="http://www.w3.org/1999/xlink" version="1.1"><g><g transform="translate(162 254)"><path d="M48.8 2.7C48.8 25.6 24.4 51.2 0.1 51.2C-24.1 51.2 -48.2 25.6 -48.2 2.7C-48.2 -20.2 -24.1 -40.5 0.1 -40.5C24.4 -40.5 48.8 -20.2 48.8 2.7Z" stroke="#61acae" fill="none" stroke-width="10"></path></g><g transform="translate(335 376)"><path d="M44 0.6C44 23.4 22 46.8 -0.2 46.8C-22.4 46.8 -44.7 23.4 -44.7 0.6C-44.7 -22.3 -22.4 -44.5 -0.2 -44.5C22 -44.5 44 -22.3 44 0.6Z" stroke="#61acae" fill="none" stroke-width="10"></path></g><g transform="translate(867 263)"><path d="M37.4 -0.3C37.4 18.3 18.7 36.6 1.4 36.6C-15.9 36.6 -31.9 18.3 -31.9 -0.3C-31.9 -19 -15.9 -38 1.4 -38C18.7 -38 37.4 -19 37.4 -0.3Z" stroke="#61acae" fill="none" stroke-width="10"></path></g><g transform="translate(624 344)"><path d="M39.9 -0.1C39.9 19.9 20 39.8 0.4 39.8C-19.2 39.8 -38.3 19.9 -38.3 -0.1C-38.3 -20.1 -19.2 -40.1 0.4 -40.1C20 -40.1 39.9 -20.1 39.9 -0.1Z" stroke="#61acae" fill="none" stroke-width="10"></path></g><g transform="translate(442 550)"><path d="M33.6 -1.2C33.6 14.7 16.8 29.4 0.4 29.4C-16.1 29.4 -32.2 14.7 -32.2 -1.2C-32.2 -17.1 -16.1 -34.1 0.4 -34.1C16.8 -34.1 33.6 -17.1 33.6 -1.2Z" stroke="#61acae" fill="none" stroke-width="10"></path></g><g transform="translate(690 591)"><path d="M36.3 -0.3C36.3 18 18.2 36.1 0.2 36.1C-17.8 36.1 -35.6 18 -35.6 -0.3C-35.6 -18.7 -17.8 -37.4 0.2 -37.4C18.2 -37.4 36.3 -18.7 36.3 -0.3Z" stroke="#61acae" fill="none" stroke-width="10"></path></g><g transform="translate(378 76)"><path d="M36.8 0.6C36.8 18.7 18.4 37.4 -1.4 37.4C-21.1 37.4 -42.3 18.7 -42.3 0.6C-42.3 -17.6 -21.1 -35.2 -1.4 -35.2C18.4 -35.2 36.8 -17.6 36.8 0.6Z" stroke="#61acae" fill="none" stroke-width="10"></path></g><g transform="translate(518 9)"><path d="M48.3 -0.7C48.3 19 24.1 38.1 0.2 38.1C-23.7 38.1 -47.3 19 -47.3 -0.7C-47.3 -20.4 -23.7 -40.8 0.2 -40.8C24.1 -40.8 48.3 -20.4 48.3 -0.7Z" stroke="#61acae" fill="none" stroke-width="10"></path></g><g transform="translate(30 128)"><path d="M45.5 -0.4C45.5 19.7 22.8 39.4 0.3 39.4C-22.1 39.4 -44.2 19.7 -44.2 -0.4C-44.2 -20.5 -22.1 -41 0.3 -41C22.8 -41 45.5 -20.5 45.5 -0.4Z" stroke="#61acae" fill="none" stroke-width="10"></path></g></g></svg>