<svg id="visual" viewBox="0 0 900 600" width="900" height="600" xmlns="http://www.w3.org/2000/svg" xmlns:xlink="http://www.w3.org/1999/xlink" version="1.1"><g><g transform="translate(7 273)"><path d="M53.5 -0.9C53.5 25.4 26.7 50.9 -0.8 50.9C-28.2 50.9 -56.5 25.4 -56.5 -0.9C-56.5 -27.3 -28.2 -54.6 -0.8 -54.6C26.7 -54.6 53.5 -27.3 53.5 -0.9Z" stroke="#bfe8df" fill="none" stroke-width="5"></path></g><g transform="translate(328 502)"><path d="M43.7 0C43.7 22.2 21.8 44.4 -0.8 44.4C-23.5 44.4 -47 22.2 -47 0C-47 -22.3 -23.5 -44.6 -0.8 -44.6C21.8 -44.6 43.7 -22.3 43.7 0Z" stroke="#bfe8df" fill="none" stroke-width="5"></path></g><g transform="translate(405 39)"><path d="M44.2 0.7C44.2 22.2 22.1 44.3 0.2 44.3C-21.6 44.3 -43.2 22.2 -43.2 0.7C-43.2 -20.7 -21.6 -41.4 0.2 -41.4C22.1 -41.4 44.2 -20.7 44.2 0.7Z" stroke="#bfe8df" fill="none" stroke-width="5"></path></g><g transform="translate(543 514)"><path d="M31.4 0.1C31.4 16.5 15.7 33 0.2 33C-15.2 33 -30.5 16.5 -30.5 0.1C-30.5 -16.3 -15.2 -32.7 0.2 -32.7C15.7 -32.7 31.4 -16.3 31.4 0.1Z" stroke="#bfe8df" fill="none" stroke-width="5"></path></g><g transform="translate(705 30)"><path d="M41 -0.5C41 19.8 20.5 39.7 0 39.7C-20.4 39.7 -40.9 19.8 -40.9 -0.5C-40.9 -20.9 -20.4 -41.7 0 -41.7C20.5 -41.7 41 -20.9 41 -0.5Z" stroke="#bfe8df" fill="none" stroke-width="5"></path></g></g></svg>