<svg id="visual" viewBox="0 0 900 600" width="900" height="600" xmlns="http://www.w3.org/2000/svg" xmlns:xlink="http://www.w3.org/1999/xlink" version="1.1"><g><g transform="translate(633 107)"><path d="M0 -24.2L20.9 -12.1L20.9 12.1L0 24.2L-20.9 12.1L-20.9 -12.1Z" stroke="#bbd8d550" fill="none" stroke-width="2"></path></g><g transform="translate(799 309)"><path d="M0 -15L13 -7.5L13 7.5L0 15L-13 7.5L-13 -7.5Z" stroke="#bbd8d550" fill="none" stroke-width="2"></path></g><g transform="translate(483 181)"><path d="M0 -22L19.1 -11L19.1 11L0 22L-19.1 11L-19.1 -11Z" stroke="#bbd8d550" fill="none" stroke-width="2"></path></g><g transform="translate(413 569)"><path d="M0 -20L17.3 -10L17.3 10L0 20L-17.3 10L-17.3 -10Z" stroke="#bbd8d550" fill="none" stroke-width="2"></path></g><g transform="translate(106 185)"><path d="M0 -14L12.1 -7L12.1 7L0 14L-12.1 7L-12.1 -7Z" stroke="#bbd8d550" fill="none" stroke-width="2"></path></g><g transform="translate(109 507)"><path d="M0 -23L19.9 -11.5L19.9 11.5L0 23L-19.9 11.5L-19.9 -11.5Z" stroke="#bbd8d550" fill="none" stroke-width="2"></path></g><g transform="translate(558 550)"><path d="M0 -20L17.3 -10L17.3 10L0 20L-17.3 10L-17.3 -10Z" stroke="#bbd8d550" fill="none" stroke-width="2"></path></g><g transform="translate(768 421)"><path d="M0 -21L18.2 -10.5L18.2 10.5L0 21L-18.2 10.5L-18.2 -10.5Z" stroke="#bbd8d550" fill="none" stroke-width="2"></path></g><g transform="translate(285 312)"><path d="M0 -13L11.3 -6.5L11.3 6.5L0 13L-11.3 6.5L-11.3 -6.5Z" stroke="#bbd8d550" fill="none" stroke-width="2"></path></g><g transform="translate(384 43)"><path d="M0 -21L18.2 -10.5L18.2 10.5L0 21L-18.2 10.5L-18.2 -10.5Z" stroke="#bbd8d550" fill="none" stroke-width="2"></path></g><g transform="translate(129 22)"><path d="M0 -20L17.3 -10L17.3 10L0 20L-17.3 10L-17.3 -10Z" stroke="#bbd8d550" fill="none" stroke-width="2"></path></g><g transform="translate(506 556)"><path d="M0 -18L15.6 -9L15.6 9L0 18L-15.6 9L-15.6 -9Z" stroke="#bbd8d550" fill="none" stroke-width="2"></path></g><g transform="translate(544 330)"><path d="M0 -17L14.7 -8.5L14.7 8.5L0 17L-14.7 8.5L-14.7 -8.5Z" stroke="#bbd8d550" fill="none" stroke-width="2"></path></g><g transform="translate(724 534)"><path d="M0 -22L19.1 -11L19.1 11L0 22L-19.1 11L-19.1 -11Z" stroke="#bbd8d550" fill="none" stroke-width="2"></path></g><g transform="translate(152 315)"><path d="M0 -12L10.4 -6L10.4 6L0 12L-10.4 6L-10.4 -6Z" stroke="#bbd8d550" fill="none" stroke-width="2"></path></g><g transform="translate(377 507)"><path d="M0 -13L11.3 -6.5L11.3 6.5L0 13L-11.3 6.5L-11.3 -6.5Z" stroke="#bbd8d550" fill="none" stroke-width="2"></path></g><g transform="translate(739 219)"><path d="M0 -13L11.3 -6.5L11.3 6.5L0 13L-11.3 6.5L-11.3 -6.5Z" stroke="#bbd8d550" fill="none" stroke-width="2"></path></g><g transform="translate(686 199)"><path d="M0 -19L16.5 -9.5L16.5 9.5L0 19L-16.5 9.5L-16.5 -9.5Z" stroke="#bbd8d550" fill="none" stroke-width="2"></path></g><g transform="translate(314 7)"><path d="M0 -20L17.3 -10L17.3 10L0 20L-17.3 10L-17.3 -10Z" stroke="#bbd8d550" fill="none" stroke-width="2"></path></g><g transform="translate(73 450)"><path d="M0 -17L14.7 -8.5L14.7 8.5L0 17L-14.7 8.5L-14.7 -8.5Z" stroke="#bbd8d550" fill="none" stroke-width="2"></path></g><g transform="translate(627 190)"><path d="M0 -16L13.9 -8L13.9 8L0 16L-13.9 8L-13.9 -8Z" stroke="#bbd8d550" fill="none" stroke-width="2"></path></g><g transform="translate(263 180)"><path d="M0 -22L19.1 -11L19.1 11L0 22L-19.1 11L-19.1 -11Z" stroke="#bbd8d550" fill="none" stroke-width="2"></path></g><g transform="translate(568 170)"><path d="M0 -20L17.3 -10L17.3 10L0 20L-17.3 10L-17.3 -10Z" stroke="#bbd8d550" fill="none" stroke-width="2"></path></g><g transform="translate(470 128)"><path d="M0 -23L19.9 -11.5L19.9 11.5L0 23L-19.9 11.5L-19.9 -11.5Z" stroke="#bbd8d550" fill="none" stroke-width="2"></path></g><g transform="translate(23 27)"><path d="M0 -20L17.3 -10L17.3 10L0 20L-17.3 10L-17.3 -10Z" stroke="#bbd8d550" fill="none" stroke-width="2"></path></g><g transform="translate(181 241)"><path d="M0 -17L14.7 -8.5L14.7 8.5L0 17L-14.7 8.5L-14.7 -8.5Z" stroke="#bbd8d550" fill="none" stroke-width="2"></path></g><g transform="translate(570 33)"><path d="M0 -17L14.7 -8.5L14.7 8.5L0 17L-14.7 8.5L-14.7 -8.5Z" stroke="#bbd8d550" fill="none" stroke-width="2"></path></g><g transform="translate(10 333)"><path d="M0 -21L18.2 -10.5L18.2 10.5L0 21L-18.2 10.5L-18.2 -10.5Z" stroke="#bbd8d550" fill="none" stroke-width="2"></path></g></g></svg>