<svg id="visual" viewBox="0 0 900 450" width="900" height="450" xmlns="http://www.w3.org/2000/svg" xmlns:xlink="http://www.w3.org/1999/xlink" version="1.1"><path d="M0 56L15 54.7C30 53.3 60 50.7 90 53.2C120 55.7 150 63.3 180 66.7C210 70 240 69 270 66.2C300 63.3 330 58.7 360 55.5C390 52.3 420 50.7 450 53C480 55.3 510 61.7 540 65.3C570 69 600 70 630 66.5C660 63 690 55 720 53.2C750 51.3 780 55.7 810 58.7C840 61.7 870 63.3 885 64.2L900 65L900 0L885 0C870 0 840 0 810 0C780 0 750 0 720 0C690 0 660 0 630 0C600 0 570 0 540 0C510 0 480 0 450 0C420 0 390 0 360 0C330 0 300 0 270 0C240 0 210 0 180 0C150 0 120 0 90 0C60 0 30 0 15 0L0 0Z" fill="#aeeede"></path><path d="M0 53L15 52.8C30 52.7 60 52.3 90 50.5C120 48.7 150 45.3 180 44.8C210 44.3 240 46.7 270 47.3C300 48 330 47 360 47.5C390 48 420 50 450 48.3C480 46.7 510 41.3 540 42C570 42.7 600 49.3 630 49.7C660 50 690 44 720 44.2C750 44.3 780 50.7 810 53.7C840 56.7 870 56.3 885 56.2L900 56L900 0L885 0C870 0 840 0 810 0C780 0 750 0 720 0C690 0 660 0 630 0C600 0 570 0 540 0C510 0 480 0 450 0C420 0 390 0 360 0C330 0 300 0 270 0C240 0 210 0 180 0C150 0 120 0 90 0C60 0 30 0 15 0L0 0Z" fill="#91e1dd"></path><path d="M0 30L15 30.2C30 30.3 60 30.7 90 31C120 31.3 150 31.7 180 32.7C210 33.7 240 35.3 270 36.7C300 38 330 39 360 39.3C390 39.7 420 39.3 450 39.8C480 40.3 510 41.7 540 42.5C570 43.3 600 43.7 630 43.7C660 43.7 690 43.3 720 41C750 38.7 780 34.3 810 31.5C840 28.7 870 27.3 885 26.7L900 26L900 0L885 0C870 0 840 0 810 0C780 0 750 0 720 0C690 0 660 0 630 0C600 0 570 0 540 0C510 0 480 0 450 0C420 0 390 0 360 0C330 0 300 0 270 0C240 0 210 0 180 0C150 0 120 0 90 0C60 0 30 0 15 0L0 0Z" fill="#75d3de"></path><path d="M0 18L15 19.5C30 21 60 24 90 25C120 26 150 25 180 26.2C210 27.3 240 30.7 270 29.8C300 29 330 24 360 21.3C390 18.7 420 18.3 450 18.8C480 19.3 510 20.7 540 21.7C570 22.7 600 23.3 630 24.5C660 25.7 690 27.3 720 29C750 30.7 780 32.3 810 32.3C840 32.3 870 30.7 885 29.8L900 29L900 0L885 0C870 0 840 0 810 0C780 0 750 0 720 0C690 0 660 0 630 0C600 0 570 0 540 0C510 0 480 0 450 0C420 0 390 0 360 0C330 0 300 0 270 0C240 0 210 0 180 0C150 0 120 0 90 0C60 0 30 0 15 0L0 0Z" fill="#5ec4df"></path><path d="M0 14L15 13.7C30 13.3 60 12.7 90 12.7C120 12.7 150 13.3 180 12.5C210 11.7 240 9.3 270 9.2C300 9 330 11 360 12.5C390 14 420 15 450 15C480 15 510 14 540 12.7C570 11.3 600 9.7 630 9.5C660 9.3 690 10.7 720 10.8C750 11 780 10 810 10C840 10 870 11 885 11.5L900 12L900 0L885 0C870 0 840 0 810 0C780 0 750 0 720 0C690 0 660 0 630 0C600 0 570 0 540 0C510 0 480 0 450 0C420 0 390 0 360 0C330 0 300 0 270 0C240 0 210 0 180 0C150 0 120 0 90 0C60 0 30 0 15 0L0 0Z" fill="#51b3de"></path></svg>